<svg width="24" height="24" viewBox="0 0 24 24" fill="none" xmlns="http://www.w3.org/2000/svg">
<path d="M20.3034 3.14575L9.43566 14.0135C9.14273 14.3064 8.6678 14.3064 8.37488 14.0135L3.69661 9.33522L0 13.0318L7.05689 20.0888C7.54711 20.579 8.21198 20.8544 8.90522 20.8544C9.59841 20.8544 10.2633 20.579 10.7535 20.0888L24 6.84231L20.3034 3.14575Z" fill="#A5EB78"/>
<g opacity="0.1">
<path d="M22.7776 5.61963L8.79337 19.6039C8.40646 19.9908 7.91994 20.2547 7.39429 20.3723C7.83318 20.6833 8.36029 20.8541 8.9053 20.8541C9.59849 20.8541 10.2634 20.5787 10.7536 20.0885L24.0001 6.84204L22.7776 5.61963Z" fill="black"/>
</g>
</svg>
