<svg width="114" height="114" viewBox="0 0 114 114" fill="none" xmlns="http://www.w3.org/2000/svg">
<path d="M111.149 56.999C111.149 86.9047 86.9047 111.149 56.9986 111.149C27.0926 111.149 2.84888 86.9047 2.84888 56.999C2.84888 27.0931 27.0926 2.84937 56.9986 2.84937C86.9047 2.84937 111.149 27.0931 111.149 56.999Z" fill="url(#paint0_linear_444_21276)"/>
<path fill-rule="evenodd" clip-rule="evenodd" d="M113.999 56.9997C113.999 88.4797 88.4787 114 56.9987 114C25.5187 114 -0.000976562 88.4797 -0.000976562 56.9997C-0.000976562 25.5196 25.5187 0 56.9987 0C88.4787 0 113.999 25.5196 113.999 56.9997ZM56.9987 111.149C86.9048 111.149 111.149 86.9053 111.149 56.9997C111.149 27.0936 86.9048 2.84994 56.9987 2.84994C27.0926 2.84994 2.84896 27.0936 2.84896 56.9997C2.84896 86.9053 27.0926 111.149 56.9987 111.149Z" fill="url(#paint1_linear_444_21276)"/>
<path d="M56.9988 99.7491C80.6089 99.7491 99.7486 80.6094 99.7486 56.9993C99.7486 33.3893 80.6089 14.2495 56.9988 14.2495C33.3888 14.2495 14.249 33.3893 14.249 56.9993C14.249 80.6094 33.3888 99.7491 56.9988 99.7491Z" fill="url(#paint2_linear_444_21276)"/>
<path d="M77.6224 60.9135L69.3746 63.1242L71.5841 71.3723L79.8337 69.1627L77.6224 60.9135Z" fill="url(#paint3_linear_444_21276)"/>
<path d="M42.8242 40.8268L34.576 43.0372L36.7859 51.2856L45.0355 49.076L42.8242 40.8268Z" fill="url(#paint4_linear_444_21276)"/>
<path d="M50.1296 67.9033L46.6571 54.0554L38.3746 56.4168L43.9435 78.618L65.9565 72.3413L63.8604 63.9877L50.1296 67.9033Z" fill="url(#paint5_linear_444_21276)"/>
<path d="M64.1573 43.6065L67.6318 57.4553L75.9141 55.094L70.3435 32.8916L48.3322 39.1696L50.4285 47.5229L64.1573 43.6065Z" fill="url(#paint6_linear_444_21276)"/>
<path d="M60.1811 50.9348L52.0367 53.1177L54.2184 61.2626L62.3647 59.0805L60.1811 50.9348Z" fill="url(#paint7_linear_444_21276)"/>
<defs>
<linearGradient id="paint0_linear_444_21276" x1="33.2509" y1="2.39045" x2="-22.4354" y2="87.8862" gradientUnits="userSpaceOnUse">
<stop stop-color="#F0DA15"/>
<stop offset="0.835592" stop-color="#D86800"/>
</linearGradient>
<linearGradient id="paint1_linear_444_21276" x1="32.0011" y1="-0.482999" x2="-26.616" y2="89.5123" gradientUnits="userSpaceOnUse">
<stop stop-color="#FFF494"/>
<stop offset="0.63021" stop-color="#FFD4AD"/>
</linearGradient>
<linearGradient id="paint2_linear_444_21276" x1="38.2505" y1="13.8873" x2="-5.71221" y2="81.3832" gradientUnits="userSpaceOnUse">
<stop stop-color="#FFEB3C"/>
<stop offset="1" stop-color="#FF881B"/>
</linearGradient>
<linearGradient id="paint3_linear_444_21276" x1="70.5383" y1="33.0042" x2="44.1383" y2="78.7305" gradientUnits="userSpaceOnUse">
<stop stop-color="white" stop-opacity="0.99"/>
<stop offset="1" stop-color="white" stop-opacity="0.49"/>
</linearGradient>
<linearGradient id="paint4_linear_444_21276" x1="70.5381" y1="33.0042" x2="44.1381" y2="78.7304" gradientUnits="userSpaceOnUse">
<stop stop-color="white" stop-opacity="0.99"/>
<stop offset="1" stop-color="white" stop-opacity="0.49"/>
</linearGradient>
<linearGradient id="paint5_linear_444_21276" x1="70.5384" y1="33.0042" x2="44.1383" y2="78.7304" gradientUnits="userSpaceOnUse">
<stop stop-color="white" stop-opacity="0.99"/>
<stop offset="1" stop-color="white" stop-opacity="0.49"/>
</linearGradient>
<linearGradient id="paint6_linear_444_21276" x1="70.5383" y1="33.0041" x2="44.1383" y2="78.7303" gradientUnits="userSpaceOnUse">
<stop stop-color="white" stop-opacity="0.99"/>
<stop offset="1" stop-color="white" stop-opacity="0.49"/>
</linearGradient>
<linearGradient id="paint7_linear_444_21276" x1="70.5385" y1="33.0039" x2="44.1384" y2="78.7301" gradientUnits="userSpaceOnUse">
<stop stop-color="white" stop-opacity="0.99"/>
<stop offset="1" stop-color="white" stop-opacity="0.49"/>
</linearGradient>
</defs>
</svg>
