<svg width="18" height="18" viewBox="0 0 18 18" fill="none" xmlns="http://www.w3.org/2000/svg">
<g clip-path="url(#clip0_1279_41251)">
<path d="M8.10004 13.3307C8.38129 13.3307 8.63441 13.5557 8.63441 13.8651C8.63441 14.1463 8.40941 14.3995 8.10004 14.3995C7.81879 14.3995 7.56566 14.1745 7.56566 13.8651C7.56566 13.5557 7.81879 13.3307 8.10004 13.3307ZM16.3688 10.0682C16.0875 10.0682 15.8344 9.84322 15.8344 9.53384C15.8344 9.25259 16.0594 8.99947 16.3688 8.99947C16.65 8.99947 16.9032 9.22447 16.9032 9.53384C16.9032 9.81509 16.65 10.0682 16.3688 10.0682ZM16.3688 7.90259C15.4688 7.90259 14.7375 8.63384 14.7375 9.53384C14.7375 9.70259 14.7657 9.87134 14.8219 10.0401L9.45004 12.9088C9.14066 12.4588 8.63441 12.2057 8.10004 12.2057C7.48129 12.2057 6.91879 12.5713 6.63754 13.1057L1.80004 10.5745C1.29379 10.2932 0.900039 9.47759 0.956289 8.69009C0.984414 8.29634 1.12504 7.98697 1.32191 7.87447C1.46254 7.79009 1.60316 7.81822 1.80004 7.90259L1.82816 7.93072C3.12191 8.60572 7.31254 10.7995 7.48129 10.8838C7.76254 10.9963 7.90316 11.0526 8.38129 10.8276L17.0438 6.32759C17.1844 6.27134 17.325 6.15884 17.325 5.96197C17.325 5.70884 17.0719 5.59634 17.0719 5.59634C16.5657 5.37134 15.8063 5.00572 15.075 4.66822C13.5 3.93697 11.7 3.09322 10.9125 2.67134C10.2375 2.30572 9.67504 2.61509 9.59066 2.67134L9.39379 2.75572C5.82191 4.55572 1.09691 6.89009 0.815664 7.05884C0.337539 7.34009 0.0281644 7.93072 3.93905e-05 8.66197C-0.0562106 9.81509 0.534414 11.0245 1.37816 11.4463L6.49691 14.0901C6.60941 14.8776 7.31254 15.4963 8.10004 15.4963C9.00004 15.4963 9.70316 14.7932 9.73129 13.8932L15.3563 10.8557C15.6375 11.0807 16.0032 11.1932 16.3688 11.1932C17.2688 11.1932 18 10.462 18 9.56197C18 8.63384 17.2688 7.90259 16.3688 7.90259Z" fill="white"/>
</g>
<defs>
<clipPath id="clip0_1279_41251">
<rect width="18" height="18" fill="white" transform="translate(0 -0.000488281)"/>
</clipPath>
</defs>
</svg>
