<svg width="18" height="18" viewBox="0 0 18 18" fill="none" xmlns="http://www.w3.org/2000/svg">
<g clip-path="url(#clip0_444_21336)">
<path d="M18 3.41765C17.3376 3.71134 16.626 3.90987 15.879 3.99913C16.6414 3.5421 17.227 2.81841 17.5027 1.95603C16.7891 2.37928 15.9988 2.68658 15.1576 2.85216C14.484 2.13445 13.5242 1.68604 12.4621 1.68604C10.4226 1.68604 8.7692 3.33939 8.7692 5.3788C8.7692 5.66824 8.80186 5.95008 8.86482 6.2204C5.7957 6.06635 3.07458 4.59619 1.25321 2.36191C0.935328 2.90732 0.753185 3.54168 0.753185 4.21847C0.753185 5.4997 1.40512 6.63004 2.39603 7.29228C1.79068 7.27308 1.22125 7.10697 0.723407 6.83036C0.723056 6.84576 0.723056 6.86123 0.723056 6.8768C0.723056 8.66603 1.99602 10.1586 3.68534 10.4979C3.37551 10.5822 3.04923 10.6275 2.71243 10.6275C2.47446 10.6275 2.24314 10.6043 2.01761 10.5611C2.48758 12.0282 3.85135 13.096 5.46734 13.1257C4.20348 14.1163 2.61115 14.7066 0.880942 14.7066C0.582853 14.7066 0.288913 14.6892 0 14.6549C1.63427 15.7028 3.57541 16.3141 5.66087 16.3141C12.4534 16.3141 16.1679 10.687 16.1679 5.80696C16.1679 5.64686 16.1643 5.48761 16.1572 5.32919C16.8788 4.80857 17.5049 4.15818 18 3.41765Z" fill="white"/>
</g>
<defs>
<clipPath id="clip0_444_21336">
<rect width="18" height="18" fill="white"/>
</clipPath>
</defs>
</svg>
