<svg width="40" height="41" viewBox="0 0 40 41" fill="none" xmlns="http://www.w3.org/2000/svg">
<rect y="0.00244141" width="40" height="40" rx="20" fill="#7289DA"/>
<path d="M29.0275 14.0291C27.3762 12.7491 25.3945 12.1091 23.3028 12.0024L22.9725 12.3225C24.844 12.7491 26.4954 13.6024 28.0367 14.7758C26.1651 13.8158 24.0734 13.1758 21.8715 12.9624C21.211 12.8558 20.6605 12.8558 20 12.8558C19.3395 12.8558 18.789 12.8558 18.1285 12.9624C15.9266 13.1758 13.8348 13.8158 11.9633 14.7758C13.5045 13.6024 15.156 12.7491 17.0275 12.3225L16.6972 12.0024C14.6055 12.1091 12.6238 12.7491 10.9725 14.0291C9.10092 17.4425 8.11009 21.2825 8 25.2291C9.65135 26.9358 11.9633 28.0024 14.3853 28.0024C14.3853 28.0024 15.156 27.1491 15.7064 26.4024C14.2752 26.0824 12.9541 25.3357 12.0734 24.1625C12.844 24.5891 13.6146 25.0158 14.3853 25.3357C15.3762 25.7624 16.367 25.9758 17.3578 26.1891C18.2386 26.2957 19.1193 26.4024 20 26.4024C20.8807 26.4024 21.7614 26.2957 22.6422 26.1891C23.633 25.9758 24.6238 25.7624 25.6147 25.3357C26.3854 25.0158 27.156 24.5891 27.9266 24.1625C27.0459 25.3357 25.7248 26.0824 24.2936 26.4024C24.844 27.1491 25.6147 28.0024 25.6147 28.0024C28.0367 28.0024 30.3486 26.9358 32 25.2291C31.8899 21.2825 30.8991 17.4425 29.0275 14.0291ZM16.367 23.3091C15.2661 23.3091 14.2753 22.3491 14.2753 21.1758C14.2753 20.0024 15.2661 19.0424 16.367 19.0424C17.4679 19.0424 18.4587 20.0024 18.4587 21.1758C18.4587 22.3491 17.4679 23.3091 16.367 23.3091ZM23.633 23.3091C22.5321 23.3091 21.5413 22.3491 21.5413 21.1758C21.5413 20.0024 22.5321 19.0424 23.633 19.0424C24.7339 19.0424 25.7248 20.0024 25.7248 21.1758C25.7248 22.3491 24.7339 23.3091 23.633 23.3091Z" fill="white"/>
</svg>
