<svg width="24" height="24" viewBox="0 0 24 24" fill="none" xmlns="http://www.w3.org/2000/svg">
<path fill-rule="evenodd" clip-rule="evenodd" d="M16.873 0.0877671C16.2553 0.363954 16.167 0.692406 16.1629 2.72747C16.1597 4.29801 16.1682 4.39938 16.3286 4.71679C16.5962 5.24649 16.8805 5.39037 17.66 5.39037C18.0187 5.39037 18.3291 5.40719 18.3496 5.42776C18.3702 5.44841 18.308 5.89611 18.2114 6.42273C18.1148 6.94942 18.0445 7.45141 18.0551 7.53836C18.072 7.67706 18.3004 7.55496 19.9142 6.54453L21.7539 5.39254L22.4374 5.39149C23.1858 5.39029 23.4467 5.28276 23.7745 4.84047C23.9241 4.63862 23.9316 4.5386 23.9316 2.7379C23.9316 0.982335 23.9208 0.829073 23.7814 0.592384C23.6988 0.452112 23.5359 0.26626 23.4193 0.179379C23.213 0.0254414 23.1271 0.0208605 20.1528 0.00419016C17.7311 -0.00940143 17.0515 0.00794468 16.873 0.0877671ZM22.9762 0.8516C23.1404 0.966565 23.1431 0.996302 23.1431 2.68594C23.1431 4.14722 23.1255 4.42108 23.0252 4.52148C22.9347 4.61197 22.743 4.63945 22.2036 4.63945H21.5001L20.3136 5.38481C19.661 5.79473 19.1136 6.11658 19.097 6.10006C19.0665 6.0695 19.2168 5.01085 19.2858 4.77086C19.3205 4.65019 19.2378 4.63945 18.2726 4.63945C17.4173 4.63945 17.1996 4.61745 17.1036 4.52148C17.0032 4.42108 16.9856 4.14722 16.9856 2.68594C16.9856 0.996302 16.9883 0.966565 17.1525 0.8516C17.2962 0.750977 17.7015 0.734682 20.0644 0.734682C22.4273 0.734682 22.8325 0.750977 22.9762 0.8516ZM10.0772 1.30117C7.00179 1.86068 4.25133 3.74631 2.64001 6.3999C2.23549 7.06611 1.94233 7.71716 1.6298 8.64334C1.49299 9.04891 1.3654 9.39636 1.34626 9.41551C1.32718 9.43465 1.16679 9.2042 0.989946 8.90338C0.81303 8.60256 0.659693 8.3456 0.649105 8.33231C0.621171 8.29724 0.0148804 8.68787 0.0148804 8.74096C0.0148804 8.81237 1.30466 10.9472 1.34783 10.9472C1.43779 10.9472 3.54419 9.64551 3.54419 9.58987C3.54419 9.49803 3.23616 8.99477 3.18007 8.99499C3.15319 8.99507 2.93272 9.11484 2.69017 9.26104C2.44763 9.40732 2.23084 9.50862 2.20846 9.48624C2.14095 9.41874 2.56094 8.25016 2.90133 7.55841C4.99016 3.31326 9.81247 1.07244 14.369 2.22953L14.8957 2.36327L14.9707 2.16848C15.1368 1.73746 15.0964 1.62625 14.7338 1.51721C13.6361 1.18703 11.3003 1.07868 10.0772 1.30117ZM17.7365 1.93615V2.31161H20.0644H22.3922V1.93615V1.56069H20.0644H17.7365V1.93615ZM17.7365 3.47553V3.88853H19.2759H20.8153V3.47553V3.06252H19.2759H17.7365V3.47553ZM21.6413 3.47553V3.88853H22.0167H22.3922V3.47553V3.06252H22.0167H21.6413V3.47553ZM10.63 4.03729C9.03144 4.45645 7.74414 5.66205 7.13583 7.30979C6.98504 7.71813 6.9686 7.92599 6.94081 9.77459C6.92407 10.8849 6.93068 11.9016 6.95553 12.0339C7.0156 12.3542 7.45834 12.8597 7.81766 13.0182C8.05097 13.1211 8.12531 13.2061 8.19965 13.4545C8.43003 14.2251 8.91625 14.9339 9.55453 15.4295C9.80263 15.6222 9.99404 15.8147 9.97977 15.8574C9.96558 15.9001 9.29741 16.0581 8.49491 16.2087C6.65163 16.5545 6.23893 16.7497 5.65915 17.55C5.53307 17.724 5.37462 18.033 5.30704 18.2365C5.23946 18.44 5.15926 18.6065 5.12893 18.6065C5.03251 18.6065 3.69437 17.2042 3.69437 17.1032C3.69437 17.0501 4.07351 16.6222 4.53698 16.1525L5.37951 15.2986L3.93669 13.8557L2.49381 12.4129L1.5864 13.3132C0.226264 14.6628 0.00234026 15.0497 1.24214e-05 16.0534C-0.000888679 16.4539 0.0471697 16.7467 0.16634 17.0671C0.324033 17.4911 0.509584 17.6941 3.30953 20.5062C5.83764 23.0453 6.35277 23.528 6.73559 23.7164C7.59651 24.14 8.60927 24.0857 9.35666 23.5759C9.57938 23.424 10.2026 22.8942 10.7418 22.3986L11.7221 21.4975L11.4476 21.2159L11.1731 20.9343H15.2808C18.5703 20.9343 19.3885 20.9152 19.3885 20.8382C19.3885 20.6882 18.527 18.15 18.3762 17.8556C18.0213 17.1629 17.4333 16.6836 16.6852 16.4774C16.4581 16.4148 15.7401 16.2704 15.0895 16.1565C14.0753 15.9788 13.9068 15.93 13.9068 15.8136C13.9068 15.739 13.9365 15.6779 13.9728 15.6779C14.009 15.6779 14.276 15.4583 14.5659 15.1898L15.0931 14.7017H15.6153C16.1884 14.7017 16.4871 14.5619 16.791 14.1517C16.944 13.945 16.9481 13.8648 16.9476 11.0354C16.9472 8.45982 16.9318 8.07677 16.8112 7.65033C16.3055 5.86262 14.9816 4.52884 13.2313 4.04382C12.5022 3.84183 11.3865 3.83897 10.63 4.03729ZM12.7479 4.71912C12.993 4.76298 13.4706 4.93464 13.8091 5.10066C14.8522 5.61189 15.5911 6.4644 15.9704 7.59416C16.1368 8.08999 16.1596 8.2844 16.1596 9.21291V10.2681L15.9719 10.1826C15.8391 10.1221 15.7841 10.0376 15.7841 9.89437C15.7841 9.69387 15.7777 9.69132 15.1646 9.65197C14.0805 9.58244 13.0287 9.09036 12.2607 8.29349L11.9286 7.94897L11.3971 8.45313C10.5794 9.22875 9.52937 9.66676 8.48147 9.66947C8.05743 9.67059 8.04969 9.67442 8.04969 9.88378C8.04969 10.0384 7.99803 10.1205 7.86196 10.1826L7.67423 10.2681V9.30933C7.67423 8.22861 7.77531 7.71904 8.13875 6.96729C8.4226 6.38007 9.31882 5.45352 9.90378 5.14256C10.7202 4.70846 11.7943 4.54859 12.7479 4.71912ZM21.1624 7.74194C20.3127 9.11732 20.1303 9.46822 20.2298 9.53535C20.5109 9.72488 20.7641 9.82648 20.8165 9.77084C20.849 9.73637 21.0112 9.4918 21.177 9.22733L21.4785 8.74651L21.5978 9.14833C22.083 10.7823 22.1099 12.9176 21.6657 14.5516C21.302 15.8895 20.8179 16.8752 19.8741 18.1993C19.7702 18.345 19.7825 18.3709 20.0624 18.5959L20.3619 18.8366L20.7366 18.3273C21.1869 17.7152 21.8501 16.4526 22.1283 15.6779C22.5043 14.6309 22.6975 13.6182 22.744 12.449C22.7921 11.2424 22.7125 10.4422 22.4355 9.35145C22.3385 8.96946 22.2699 8.64514 22.2829 8.6308C22.296 8.61646 22.5371 8.74306 22.8187 8.91217C23.3814 9.24993 23.375 9.25113 23.635 8.75823L23.7399 8.55924L22.6178 7.88086L21.4956 7.20248L21.1624 7.74194ZM12.8556 9.74013C13.3922 10.0643 14.0932 10.3162 14.6725 10.393L15.0474 10.4428L15.0174 11.765C14.9931 12.8311 14.9603 13.1527 14.8482 13.4252C14.6216 13.9757 14.6967 13.9508 13.2594 13.9508H11.9545V14.3263V14.7017L12.9494 14.7042L13.9444 14.7068L13.7567 14.8654C13.6534 14.9526 13.3831 15.112 13.1559 15.2196C12.7889 15.3933 12.651 15.4151 11.9169 15.4151C11.1767 15.4151 11.046 15.3941 10.6589 15.2127C9.74992 14.7867 9.0361 13.846 8.87517 12.862C8.83462 12.6142 8.80128 11.9706 8.80106 11.4318L8.80061 10.4521L9.33413 10.3606C10.0496 10.2379 10.8357 9.89775 11.4288 9.45418L11.9169 9.08908L12.1422 9.2672C12.2661 9.3652 12.5871 9.578 12.8556 9.74013ZM8.04969 11.5854C8.04969 11.9497 8.0183 12.2237 7.97655 12.2237C7.86444 12.2237 7.67423 11.8073 7.67423 11.5618C7.67423 11.3769 7.9143 10.9472 8.01763 10.9472C8.03527 10.9472 8.04969 11.2344 8.04969 11.5854ZM16.1596 11.6104C16.1596 11.8867 15.9922 12.2237 15.8549 12.2237C15.8158 12.2237 15.7852 11.93 15.7865 11.5667L15.7889 10.9096L15.9743 11.1203C16.1003 11.2637 16.1596 11.4203 16.1596 11.6104ZM16.0371 13.8547C15.8631 13.9819 15.4574 13.9836 15.5108 13.857C15.5326 13.8054 15.5896 13.6211 15.6377 13.4476C15.7028 13.2125 15.7757 13.115 15.9236 13.0654C16.1191 12.9999 16.1224 13.0045 16.1453 13.3787C16.1633 13.6722 16.1387 13.7804 16.0371 13.8547ZM3.39378 14.4387L4.25463 15.302L4.04896 15.5077L3.84328 15.7134L2.96471 14.8348L2.08613 13.9563L2.26508 13.7658C2.36345 13.661 2.464 13.5754 2.48848 13.5754C2.51288 13.5754 2.92033 13.9639 3.39378 14.4387ZM2.4459 15.3742L3.26252 16.1927L3.10295 16.5222C2.90786 16.9253 2.90373 17.2 3.08681 17.5928C3.25651 17.9567 6.10925 20.8113 6.42133 20.9295C6.74933 21.0536 7.16038 21.0245 7.47734 20.8545L7.7663 20.6997L8.63856 21.5647L9.51075 22.4296L9.29163 22.6584C8.95094 23.014 8.48477 23.2055 7.95012 23.2095C7.08093 23.2159 7.03738 23.1818 3.90463 20.0487C1.78937 17.9331 1.03515 17.1319 0.921387 16.8794C0.748676 16.4962 0.719691 15.8868 0.852979 15.442C0.946318 15.1305 1.39597 14.5502 1.54134 14.5537C1.58978 14.5548 1.99678 14.9241 2.4459 15.3742ZM11.579 16.241C11.8062 16.2678 12.2097 16.2542 12.4757 16.2109C12.7417 16.1676 12.9689 16.1416 12.9804 16.1532C12.9919 16.1647 12.7565 16.4174 12.4573 16.7146L11.9132 17.255L11.3519 16.6827C10.9048 16.2268 10.8288 16.1187 10.9783 16.1514C11.0815 16.174 11.3518 16.2143 11.579 16.241ZM11.9194 18.3061C11.9607 18.3061 12.3591 17.9405 12.8046 17.4936L13.6145 16.6812L15.0936 16.957C15.9071 17.1087 16.6618 17.2693 16.7708 17.3139C17.0527 17.4292 17.4981 17.8376 17.6388 18.1096C17.7346 18.2951 18.3373 20.0001 18.3373 20.086C18.3373 20.0983 16.5372 20.1083 14.3372 20.1083H10.3371L9.59418 19.3626L8.85122 18.6168L8.0566 19.3353C6.82878 20.4457 6.89981 20.43 6.21618 19.7392L5.77607 19.2944L5.95493 18.7488C6.34804 17.5497 6.67566 17.3366 8.71538 16.9535L10.1898 16.6766L11.017 17.4913C11.4719 17.9395 11.878 18.3061 11.9194 18.3061ZM9.70163 20.5964L10.5626 21.4598L10.3193 21.703L10.0761 21.9462L9.19694 21.067L8.31769 20.1879L8.53568 19.9603C8.65553 19.8352 8.7732 19.7329 8.79708 19.7329C8.82103 19.7329 9.22803 20.1214 9.70163 20.5964Z" fill="#F37502"/>
</svg>
