<svg width="20" height="16" viewBox="0 0 20 16" fill="none" xmlns="http://www.w3.org/2000/svg">
<path d="M1.85 3.04787L2.10607 3.30393L7.986 9.18387L1.85 3.04787ZM1.85 3.04787V3.41M1.85 3.04787V3.41M1.85 3.41V13C1.85 13.305 1.97116 13.5975 2.18683 13.8132C2.40249 14.0288 2.695 14.15 3 14.15H17C17.305 14.15 17.5975 14.0288 17.8132 13.8132C18.0288 13.5975 18.15 13.305 18.15 13V3.41V3.04787M1.85 3.41L18.15 3.04787M18.15 3.04787L17.8939 3.30393M18.15 3.04787L17.8939 3.30393M17.8939 3.30393L12.014 9.18387C11.4796 9.71758 10.7553 10.0174 10 10.0174C9.24478 10.0174 8.52044 9.7176 7.98607 9.18393L17.8939 3.30393ZM16.6961 2.10607L16.9521 1.85H16.59H3.41H3.04787L3.30393 2.10607L9.1835 7.98563C9.18358 7.98571 9.18366 7.98579 9.18374 7.98587C9.2906 8.09355 9.4177 8.17902 9.55774 8.23736C9.69788 8.29574 9.84819 8.3258 10 8.3258C10.1518 8.3258 10.3021 8.29574 10.4423 8.23736C10.5823 8.17902 10.7094 8.09355 10.8163 7.98587C10.8163 7.98579 10.8164 7.98571 10.8165 7.98563L16.6961 2.10607ZM3 0.15H17C17.7559 0.15 18.4808 0.450267 19.0153 0.984746C19.5497 1.51922 19.85 2.24413 19.85 3V13C19.85 13.7559 19.5497 14.4808 19.0153 15.0153C18.4808 15.5497 17.7559 15.85 17 15.85H3C2.24413 15.85 1.51922 15.5497 0.984746 15.0153C0.450267 14.4808 0.15 13.7559 0.15 13V3C0.15 2.24413 0.450267 1.51922 0.984746 0.984746C1.51922 0.450267 2.24413 0.15 3 0.15Z" fill="#F37502" stroke="white" stroke-width="0.3"/>
</svg>
