<svg width="22" height="24" viewBox="0 0 22 24" fill="none" xmlns="http://www.w3.org/2000/svg">
<path fill-rule="evenodd" clip-rule="evenodd" d="M10.0136 0.0401887C9.88871 0.0555704 9.54896 0.12355 9.25855 0.191229C6.60803 0.808896 4.58115 2.84903 3.95039 5.53406C3.79732 6.18587 3.71303 9.85413 3.84045 10.322C3.94003 10.6876 4.22506 11.0517 4.53673 11.2116C4.73801 11.3148 4.75473 11.356 4.75473 11.748C4.75473 12.6126 5.26888 13.1742 6.13141 13.2517C6.5587 13.2901 6.58533 13.3048 6.72615 13.5784C6.80726 13.7361 7.03017 14.0556 7.22153 14.2886L7.56952 14.7123L7.16153 15.5024L6.75361 16.2926L5.39472 16.755C4.64736 17.0093 3.88267 17.2957 3.6954 17.3914C1.6695 18.427 0.258167 20.6062 0.0229956 23.0621C-0.0218747 23.531 -0.0096167 23.6095 0.137025 23.7937L0.301373 24H10.8837H21.4661L21.6304 23.7937C21.7771 23.6095 21.7893 23.531 21.7444 23.0621C21.5093 20.6062 20.0979 18.427 18.072 17.3914C17.8848 17.2957 17.1205 17.0095 16.3736 16.7553L15.0156 16.2932L14.6093 15.5133C14.3676 15.0495 14.228 14.6994 14.2648 14.6494C14.2988 14.6032 14.4751 14.3715 14.6566 14.1347C15.0979 13.5591 15.4155 12.8442 15.5738 12.0698L15.7041 11.4321L16.3395 11.3879C16.6939 11.3633 17.0797 11.2899 17.2118 11.2218C17.5415 11.052 17.8254 10.6947 17.927 10.322C18.0555 9.84978 17.97 6.1858 17.815 5.52454C17.2534 3.12905 15.4749 1.156 13.1743 0.375884C12.2543 0.0638989 10.9458 -0.0750611 10.0136 0.0401887ZM12.6619 1.19194C13.6794 1.5103 14.505 2.01639 15.2607 2.78495C15.8807 3.41552 16.2773 4.01083 16.5606 4.73594C16.7537 5.23011 17.0127 6.21063 17.0127 6.44728C17.0127 6.48585 16.8114 6.51744 16.5654 6.51744H16.118L16.0701 6.19855C15.9601 5.46834 15.8471 5.09602 15.5517 4.49156C14.9452 3.25053 13.6627 2.26408 12.2836 1.9779C11.6033 1.83677 10.1641 1.83677 9.48389 1.9779C8.10479 2.26408 6.82224 3.25053 6.21578 4.49156C5.92037 5.09602 5.80733 5.46834 5.69738 6.19855L5.64941 6.51744H5.20207C4.956 6.51744 4.75473 6.48585 4.75473 6.44728C4.75473 6.21063 5.01374 5.23011 5.20684 4.73594C5.94587 2.84438 7.70398 1.42709 9.82439 1.01343C9.92843 0.993101 10.4903 0.987698 11.0729 1.00135C11.9041 1.02086 12.2462 1.06191 12.6619 1.19194ZM12.9335 3.1941C14.2753 3.84373 15.121 5.15012 15.121 6.57319V7.01993L14.686 6.95368C13.1137 6.7141 11.8499 6.15316 10.6762 5.17391C10.1565 4.74022 10.1077 4.71666 9.72738 4.71666C8.8526 4.71666 7.9645 5.06714 7.1495 5.73395C6.82035 6.00324 6.64609 6.10724 6.67212 6.01885C6.69459 5.94232 6.75255 5.72832 6.8009 5.54329C6.94384 4.99571 7.22184 4.52878 7.7176 4.00318C8.078 3.62119 8.32316 3.44261 8.79616 3.21774C9.1328 3.05769 9.49335 2.91033 9.59739 2.89037C9.70143 2.87041 10.3484 2.85976 11.0351 2.86674L12.2836 2.87942L12.9335 3.1941ZM10.0322 5.86653C11.2064 6.89815 12.8106 7.61832 14.5088 7.87605L15.1285 7.97014L15.0892 8.35056C15.0676 8.55975 15.0304 8.96725 15.0066 9.25612C14.8333 11.3595 14.5215 12.6775 14.0259 13.4018C12.727 15.3003 10.3186 15.6952 8.54752 14.3001C8.2142 14.0376 7.70572 13.4545 7.70572 13.3348C7.70572 13.2994 7.90912 13.2704 8.15776 13.2704C8.58179 13.2704 8.61698 13.2841 8.72518 13.4916C8.78867 13.6133 8.9655 13.8074 9.11819 13.923C9.38219 14.1229 9.44174 14.1344 10.3306 14.1581C11.2207 14.1819 11.2813 14.1738 11.5969 13.9904C11.8371 13.8508 11.9826 13.6901 12.1249 13.4068C12.3416 12.9756 12.3578 12.8407 12.2424 12.4286C12.1416 12.0688 11.8484 11.7264 11.4825 11.5413C11.25 11.4237 11.0372 11.3945 10.411 11.3945C9.48487 11.3945 9.07249 11.5502 8.77126 12.0136L8.58838 12.2949H7.89209H7.19573L7.1128 11.8635C6.98833 11.2157 6.81172 9.82472 6.71767 8.75221L6.63406 7.79802L7.06279 7.23325C7.29856 6.92254 7.63203 6.5491 7.80386 6.40324C8.27981 5.99927 9.04245 5.67858 9.65391 5.6253C9.70582 5.62073 9.87607 5.7293 10.0322 5.86653ZM5.69322 7.73672C5.7138 7.8708 5.74861 8.28445 5.77063 8.65586C5.79272 9.02727 5.83343 9.57591 5.8612 9.87514L5.91167 10.4191H5.47159C4.75753 10.4191 4.75473 10.4129 4.75473 8.83181V7.49286H5.20532C5.65554 7.49286 5.65592 7.49301 5.69322 7.73672ZM17.0127 8.81876C17.0127 10.407 17.0073 10.4191 16.3096 10.4191H15.857L15.9043 9.91266C15.9302 9.63406 15.9711 9.05166 15.995 8.61835C16.0607 7.42901 16.0287 7.49286 16.5602 7.49286H17.0127V8.81876ZM6.0658 11.4508C6.08427 11.4817 6.12354 11.6844 6.15305 11.901C6.202 12.2609 6.19376 12.2949 6.0574 12.2949C5.84319 12.2949 5.72538 12.1186 5.68142 11.7321C5.64479 11.4097 5.65176 11.3945 5.83759 11.3945C5.94459 11.3945 6.04726 11.4199 6.0658 11.4508ZM11.059 12.3812C11.2765 12.4947 11.3351 12.5906 11.3366 12.8346C11.3384 13.1556 11.0941 13.2704 10.4094 13.2704C9.8819 13.2704 9.7973 13.2503 9.63182 13.0862C9.52967 12.9849 9.44606 12.8645 9.44606 12.8187C9.44606 12.6589 9.60844 12.4361 9.77256 12.3705C10.0144 12.2739 10.8669 12.281 11.059 12.3812ZM13.8321 16.0877C14.0466 16.5269 14.1298 16.7812 14.0963 16.8943C14.0025 17.2112 13.1371 19.1229 13.0875 19.1229C13.06 19.1229 12.6879 18.775 12.2606 18.3499L11.4838 17.5768L12.489 16.5121C13.0419 15.9266 13.4998 15.4472 13.5066 15.4469C13.5135 15.4465 13.66 15.735 13.8321 16.0877ZM9.19908 16.5894C9.70945 17.0943 10.1271 17.5396 10.1271 17.5789C10.1271 17.6441 8.78988 19.0563 8.68001 19.1072C8.63491 19.1281 7.77269 17.2373 7.67183 16.8966C7.61099 16.6908 8.07044 15.6714 8.22412 15.6714C8.24992 15.6714 8.68863 16.0845 9.19908 16.5894ZM11.5647 16.1105C11.5647 16.1404 11.3944 16.3311 11.1862 16.5344L10.8078 16.904L10.3917 16.4966C10.1629 16.2726 9.97565 16.0712 9.97557 16.0491C9.9755 16.0271 10.333 16.0196 10.7701 16.0326C11.2071 16.0456 11.5647 16.0806 11.5647 16.1105ZM7.09336 17.9789C7.50127 19.0175 8.14981 20.2091 9.00764 21.4962C9.44416 22.1511 9.84172 22.7629 9.8912 22.8558L9.98102 23.0246H5.47621C2.73352 23.0246 0.9714 22.9971 0.9714 22.9544C0.9714 22.9159 1.02225 22.6447 1.08437 22.3519C1.46596 20.5529 2.62547 18.9904 4.1494 18.2212C4.51161 18.0384 6.53108 17.3374 6.72206 17.3281C6.79652 17.3245 6.92416 17.5483 7.09336 17.9789ZM16.1832 17.6859C17.7586 18.2096 18.2416 18.4759 19.0111 19.245C19.847 20.0806 20.4318 21.1672 20.6831 22.3519C20.7452 22.6447 20.796 22.9159 20.796 22.9544C20.796 22.9971 19.0339 23.0246 16.2912 23.0246H11.7864L11.8762 22.8558C11.9257 22.7629 12.3265 22.1467 12.7668 21.4864C13.6002 20.2368 14.3258 18.8983 14.7084 17.9045C14.8313 17.5852 14.9672 17.3235 15.0103 17.323C15.0536 17.3226 15.5813 17.4858 16.1832 17.6859ZM11.7784 19.1471L12.6328 19.9967L11.7771 21.2822C11.3065 21.9891 10.9045 22.5676 10.8837 22.5676C10.8629 22.5676 10.4627 21.992 9.99449 21.2884L9.14309 20.0092L9.95665 19.1565C10.4041 18.6876 10.8048 18.3024 10.8471 18.3007C10.8894 18.299 11.3085 18.6798 11.7784 19.1471ZM15.7696 18.7155C15.5804 18.9032 15.6191 19.2489 15.8457 19.3962C16.2647 19.6685 16.7306 19.2066 16.456 18.791C16.3075 18.5663 15.9588 18.528 15.7696 18.7155ZM17.5351 19.5255C17.4409 19.5723 17.3381 19.7062 17.3067 19.8229C17.2554 20.0136 17.3027 20.0921 17.7684 20.5902C18.0538 20.8954 18.3649 21.282 18.4598 21.4494C18.7144 21.8987 19.1411 21.9605 19.3558 21.5793C19.4654 21.3847 19.4592 21.3494 19.2449 20.9459C18.9918 20.4696 18.1238 19.5446 17.8703 19.4813C17.7802 19.4588 17.6294 19.4787 17.5351 19.5255Z" fill="#F37502"/>
</svg>
