<svg width="23" height="23" viewBox="0 0 23 23" fill="none" xmlns="http://www.w3.org/2000/svg">
<g clip-path="url(#clip0_1508_44828)">
<path d="M7.62069 12.0207L7.29942 16.4414C7.75908 16.4414 7.95816 16.2482 8.19689 16.0163L10.3519 14.0015L14.8174 17.2006C15.6364 17.6471 16.2134 17.412 16.4343 16.4636L19.3655 3.0274L19.3663 3.0266C19.6261 1.84227 18.9285 1.37915 18.1305 1.66969L0.901415 8.12256C-0.274439 8.56906 -0.256635 9.21031 0.701528 9.50085L5.10633 10.8411L15.3378 4.57827C15.8193 4.26635 16.2571 4.43894 15.897 4.75085L7.62069 12.0207Z" fill="white"/>
<g clip-path="url(#clip1_1508_44828)">
<path d="M20.5776 18.8789C21.1526 18.2755 21.466 17.5295 21.466 16.7522C21.466 15.7796 20.9749 14.8989 20.1884 14.2739C20.1704 16.5022 18.0283 18.3145 15.3972 18.3145H13.6165C14.3052 19.4257 15.7046 20.1893 17.3136 20.1893H21.1466C21.2764 20.1893 21.3921 20.1132 21.442 19.996C21.492 19.8788 21.464 19.7441 21.3722 19.6562L20.5776 18.8789Z" fill="#64B5F6"/>
<path d="M15.3973 10.3154C12.924 10.3154 10.7449 11.9958 10.7449 14.2526C10.7449 15.0089 10.9972 15.7294 11.4529 16.3454L10.9891 16.7992C10.755 17.0281 10.675 17.3818 10.8094 17.6937C10.9394 17.9974 11.2378 18.1897 11.5643 18.1897H15.3973C17.8705 18.1897 20.0496 16.5094 20.0496 14.2526C20.0496 11.9958 17.8705 10.3154 15.3973 10.3154Z" fill="#2196F3" stroke="white"/>
<path d="M17.3137 13.3149H13.4808C13.3051 13.3149 13.1614 13.4556 13.1614 13.6274C13.1614 13.7993 13.3051 13.9399 13.4808 13.9399H17.3137C17.4894 13.9399 17.6331 13.7993 17.6331 13.6274C17.6331 13.4556 17.4894 13.3149 17.3137 13.3149Z" fill="#FAFAFA"/>
<path d="M16.0361 14.5649H13.4808C13.3051 14.5649 13.1614 14.7056 13.1614 14.8774C13.1614 15.0493 13.3051 15.1899 13.4808 15.1899H16.0361C16.2118 15.1899 16.3555 15.0493 16.3555 14.8774C16.3555 14.7056 16.2118 14.5649 16.0361 14.5649Z" fill="#FAFAFA"/>
</g>
</g>
<defs>
<clipPath id="clip0_1508_44828">
<rect width="23" height="22" fill="white" transform="translate(0 0.00244141)"/>
</clipPath>
<clipPath id="clip1_1508_44828">
<rect width="12.2667" height="11" fill="white" transform="translate(9.19995 9.50244)"/>
</clipPath>
</defs>
</svg>
