<svg width="38" height="30" viewBox="0 0 38 30" fill="none" xmlns="http://www.w3.org/2000/svg">
<path d="M32.1687 2.91884C29.7467 1.80756 27.1495 0.988778 24.4339 0.51979C24.3845 0.510735 24.335 0.533372 24.3096 0.578571C23.9755 1.17269 23.6056 1.94768 23.3465 2.55687C20.4257 2.11958 17.5199 2.11958 14.6591 2.55687C14.3999 1.93418 14.0165 1.17269 13.6809 0.578571C13.6555 0.534856 13.6061 0.51222 13.5566 0.51979C10.8426 0.98722 8.24539 1.806 5.82185 2.91884C5.80085 2.92789 5.78288 2.94296 5.77093 2.96255C0.844591 10.3225 -0.505003 17.5015 0.157029 24.5915C0.159997 24.6261 0.179517 24.6593 0.206458 24.6804C3.45672 27.0673 6.60523 28.5164 9.69518 29.4769C9.74461 29.492 9.797 29.4739 9.82847 29.4332C10.5594 28.435 11.2109 27.3825 11.7696 26.2757C11.8025 26.2109 11.7711 26.134 11.7037 26.1083C10.6702 25.7163 9.68612 25.2383 8.73946 24.6955C8.66458 24.6518 8.65856 24.5447 8.72751 24.4934C8.92672 24.3442 9.12599 24.1888 9.31622 24.032C9.35065 24.0033 9.3986 23.9973 9.43905 24.0154C15.658 26.8548 22.3907 26.8548 28.5363 24.0154C28.5767 23.9958 28.6247 24.0019 28.6606 24.0304C28.8509 24.1873 29.0501 24.3441 29.2508 24.4933C29.3197 24.5446 29.3151 24.6517 29.2403 24.6954C28.2937 25.2488 27.3096 25.7162 26.2746 26.1068C26.2072 26.1324 26.1772 26.2108 26.2103 26.2756C26.7809 27.3809 27.4325 28.4334 28.1499 29.4316C28.1799 29.4739 28.2338 29.492 28.2832 29.4768C31.3881 28.5164 34.5366 27.0672 37.7869 24.6803C37.8154 24.6592 37.8334 24.6275 37.8363 24.5929C38.6287 16.3961 36.5092 9.2759 32.218 2.96396C32.2076 2.94296 32.1896 2.92789 32.1687 2.91884ZM12.6984 20.2744C10.8261 20.2744 9.28334 18.5555 9.28334 16.4444C9.28334 14.3333 10.7961 12.6144 12.6984 12.6144C14.6156 12.6144 16.1434 14.3484 16.1135 16.4444C16.1135 18.5555 14.6006 20.2744 12.6984 20.2744ZM25.3251 20.2744C23.4528 20.2744 21.91 18.5555 21.91 16.4444C21.91 14.3333 23.4228 12.6144 25.3251 12.6144C27.2423 12.6144 28.7701 14.3484 28.7402 16.4444C28.7402 18.5555 27.2423 20.2744 25.3251 20.2744Z" fill="#2B3CCE"/>
</svg>
