<svg width="32" height="32" viewBox="0 0 32 32" fill="none" xmlns="http://www.w3.org/2000/svg">
<g clip-path="url(#clip0_677_26981)">
<path d="M15.9999 32C17.957 32 19.8318 31.648 21.5651 31.0048L22.2608 16L21.5651 0.995188C19.8318 0.352063 17.957 0 15.9999 0C14.0428 0 12.168 0.352063 10.4347 0.995188L9.73901 16L10.4346 31.0048C12.168 31.648 14.0428 32 15.9999 32Z" fill="#0052B4"/>
<path d="M0 15.9999C0 22.8794 4.342 28.7441 10.4348 31.0047V0.995117C4.342 3.2558 0 9.12049 0 15.9999Z" fill="#A2001D"/>
<path d="M21.5652 0.995117V31.0048C27.658 28.7441 32 22.8794 32 15.9999C32 9.12049 27.658 3.2558 21.5652 0.995117Z" fill="#A2001D"/>
<path d="M7.6521 16H9.04341V21.5652H7.6521V16Z" fill="#FFDA44"/>
<path d="M2.08691 16H3.47823V21.5652H2.08691V16Z" fill="#FFDA44"/>
<path d="M5.56514 19.4784C6.33354 19.4784 6.95645 18.8555 6.95645 18.0871C6.95645 17.3187 6.33354 16.6958 5.56514 16.6958C4.79674 16.6958 4.17383 17.3187 4.17383 18.0871C4.17383 18.8555 4.79674 19.4784 5.56514 19.4784Z" fill="#FFDA44"/>
<path d="M5.56525 13.913C5.94944 13.913 6.26088 13.6015 6.26088 13.2174C6.26088 12.8332 5.94944 12.5217 5.56525 12.5217C5.18107 12.5217 4.86963 12.8332 4.86963 13.2174C4.86963 13.6015 5.18107 13.913 5.56525 13.913Z" fill="#FFDA44"/>
<path d="M4.17383 20.1741H6.95645V21.5654H4.17383V20.1741Z" fill="#FFDA44"/>
<path d="M4.17383 14.6089H6.95645V16.0002H4.17383V14.6089Z" fill="#FFDA44"/>
<path d="M5.56521 8.3479L6.05796 9.86415H7.65221L6.36252 10.8013L6.8549 12.3175L5.56521 11.3804L4.27558 12.3175L4.76796 10.8013L3.47827 9.86415H5.07252L5.56521 8.3479Z" fill="#FFDA44"/>
</g>
<defs>
<clipPath id="clip0_677_26981">
<rect width="32" height="32" fill="white"/>
</clipPath>
</defs>
</svg>
