<svg width="14" height="14" viewBox="0 0 14 14" fill="none" xmlns="http://www.w3.org/2000/svg">
<g clip-path="url(#clip0_1541_47281)">
<path d="M10.4999 13.4167H2.33325C1.36842 13.4167 0.583252 12.6315 0.583252 11.6667V3.5C0.583252 2.53517 1.36842 1.75 2.33325 1.75H6.99992C7.32192 1.75 7.58325 2.01075 7.58325 2.33333C7.58325 2.65592 7.32192 2.91667 6.99992 2.91667H2.33325C2.01184 2.91667 1.74992 3.178 1.74992 3.5V11.6667C1.74992 11.9887 2.01184 12.25 2.33325 12.25H10.4999C10.8213 12.25 11.0833 11.9887 11.0833 11.6667V7C11.0833 6.67742 11.3446 6.41667 11.6666 6.41667C11.9886 6.41667 12.2499 6.67742 12.2499 7V11.6667C12.2499 12.6315 11.4648 13.4167 10.4999 13.4167Z" fill="black"/>
<path d="M12.8334 0.583252H9.3334C9.09773 0.583252 8.88481 0.725002 8.7944 0.943169C8.70398 1.16134 8.75415 1.41217 8.92098 1.579L10.2586 2.91659L6.00431 7.17084C5.77623 7.39892 5.77623 7.76759 6.00431 7.99567C6.11806 8.10942 6.2674 8.16659 6.41673 8.16659C6.56606 8.16659 6.7154 8.10942 6.82915 7.99567L11.0834 3.74142L12.421 5.079C12.5324 5.19042 12.6817 5.24992 12.8334 5.24992C12.9086 5.24992 12.9845 5.23592 13.0568 5.20559C13.2744 5.11575 13.4167 4.90225 13.4167 4.66659V1.16659C13.4167 0.844002 13.1554 0.583252 12.8334 0.583252Z" fill="black"/>
</g>
<defs>
<clipPath id="clip0_1541_47281">
<rect width="14" height="14" fill="white"/>
</clipPath>
</defs>
</svg>
