<svg width="45" height="44" viewBox="0 0 45 44" fill="none" xmlns="http://www.w3.org/2000/svg">
<g clip-path="url(#clip0_690_26948)">
<path d="M14.9103 24.0366L14.2817 32.8779C15.181 32.8779 15.5705 32.4916 16.0376 32.0277L20.254 27.9981L28.9909 34.3963C30.5932 35.2893 31.7221 34.8191 32.1544 32.9222L37.8892 6.04991L37.8908 6.04832C38.399 3.67966 37.0342 2.75341 35.473 3.33449L1.76387 16.2402C-0.536713 17.1332 -0.501879 18.4157 1.37279 18.9968L9.99087 21.6774L30.009 9.15166C30.951 8.52782 31.8076 8.87299 31.103 9.49682L14.9103 24.0366Z" fill="#039BE5"/>
<path d="M40.2608 37.7532C41.3857 36.5463 41.9989 35.0543 41.9989 33.4997C41.9989 31.5546 41.0381 29.7931 39.4992 28.5432C39.464 32.9998 35.273 36.6244 30.1251 36.6244H26.6411C27.9886 38.8469 30.7266 40.374 33.8748 40.374H41.374C41.6279 40.374 41.8544 40.2217 41.9521 39.9874C42.0497 39.753 41.995 39.4835 41.8154 39.3077L40.2608 37.7532Z" fill="#64B5F6"/>
<path d="M21.831 33.9547L22.1846 34.3083L21.831 33.9547C21.5115 34.2743 21.4085 34.759 21.5869 35.1816C21.7618 35.5998 22.1689 35.8746 22.626 35.8746H30.1252C34.7997 35.8746 38.7494 32.6441 38.7494 28.5003C38.7494 24.3564 34.7997 21.126 30.1252 21.126C25.4507 21.126 21.501 24.3564 21.501 28.5003C21.501 30.0362 22.0523 31.5032 23.0555 32.7302L21.831 33.9547Z" fill="#2196F3" stroke="white"/>
<path d="M33.8749 26.6255H26.3757C26.032 26.6255 25.7507 26.9067 25.7507 27.2504C25.7507 27.5941 26.032 27.8754 26.3757 27.8754H33.8749C34.2186 27.8754 34.4998 27.5941 34.4998 27.2504C34.4998 26.9067 34.2186 26.6255 33.8749 26.6255Z" fill="#FAFAFA"/>
<path d="M31.3752 29.1252H26.3757C26.032 29.1252 25.7507 29.4065 25.7507 29.7502C25.7507 30.0939 26.032 30.3751 26.3757 30.3751H31.3752C31.7189 30.3751 32.0001 30.0939 32.0001 29.7502C32.0001 29.4065 31.7189 29.1252 31.3752 29.1252Z" fill="#FAFAFA"/>
</g>
<defs>
<clipPath id="clip0_690_26948">
<rect width="45" height="44" fill="white"/>
</clipPath>
</defs>
</svg>
