<svg width="24" height="25" viewBox="0 0 24 25" fill="none" xmlns="http://www.w3.org/2000/svg">
<path d="M21.9201 11.6029C19.9001 6.91293 16.1001 4.00293 12.0001 4.00293C7.90007 4.00293 4.10007 6.91293 2.08007 11.6029C2.025 11.7291 1.99658 11.8653 1.99658 12.0029C1.99658 12.1406 2.025 12.2768 2.08007 12.4029C4.10007 17.0929 7.90007 20.0029 12.0001 20.0029C16.1001 20.0029 19.9001 17.0929 21.9201 12.4029C21.9751 12.2768 22.0036 12.1406 22.0036 12.0029C22.0036 11.8653 21.9751 11.7291 21.9201 11.6029V11.6029ZM12.0001 18.0029C8.83007 18.0029 5.83007 15.7129 4.10007 12.0029C5.83007 8.29293 8.83007 6.00293 12.0001 6.00293C15.1701 6.00293 18.1701 8.29293 19.9001 12.0029C18.1701 15.7129 15.1701 18.0029 12.0001 18.0029ZM12.0001 8.00293C11.2089 8.00293 10.4356 8.23753 9.77779 8.67705C9.11999 9.11658 8.6073 9.74129 8.30455 10.4722C8.0018 11.2031 7.92258 12.0074 8.07693 12.7833C8.23127 13.5592 8.61223 14.2719 9.17164 14.8314C9.73105 15.3908 10.4438 15.7717 11.2197 15.9261C11.9956 16.0804 12.7999 16.0012 13.5308 15.6984C14.2617 15.3957 14.8864 14.883 15.3259 14.2252C15.7655 13.5674 16.0001 12.7941 16.0001 12.0029C16.0001 10.9421 15.5786 9.92465 14.8285 9.1745C14.0783 8.42436 13.0609 8.00293 12.0001 8.00293V8.00293ZM12.0001 14.0029C11.6045 14.0029 11.2178 13.8856 10.8889 13.6659C10.56 13.4461 10.3037 13.1337 10.1523 12.7683C10.0009 12.4028 9.96133 12.0007 10.0385 11.6127C10.1157 11.2248 10.3061 10.8684 10.5859 10.5887C10.8656 10.309 11.2219 10.1185 11.6099 10.0414C11.9978 9.96419 12.4 10.0038 12.7654 10.1552C13.1309 10.3065 13.4432 10.5629 13.663 10.8918C13.8828 11.2207 14.0001 11.6074 14.0001 12.0029C14.0001 12.5334 13.7894 13.0421 13.4143 13.4171C13.0392 13.7922 12.5305 14.0029 12.0001 14.0029Z" fill="#F37502"/>
</svg>
