<svg width="24" height="25" viewBox="0 0 24 25" fill="none" xmlns="http://www.w3.org/2000/svg">
<path d="M14.72 8.79244L10.43 13.0924L8.78 11.4424C8.69036 11.3378 8.58004 11.2527 8.45597 11.1927C8.33191 11.1327 8.19678 11.099 8.05906 11.0936C7.92134 11.0883 7.78401 11.1115 7.65568 11.1618C7.52736 11.2121 7.41081 11.2883 7.31335 11.3858C7.2159 11.4832 7.13964 11.5998 7.08937 11.7281C7.03909 11.8564 7.01589 11.9938 7.02121 12.1315C7.02653 12.2692 7.06026 12.4043 7.12028 12.5284C7.1803 12.6525 7.26532 12.7628 7.37 12.8524L9.72 15.2124C9.81344 15.3051 9.92426 15.3784 10.0461 15.4282C10.1679 15.478 10.2984 15.5032 10.43 15.5024C10.6923 15.5013 10.9437 15.3972 11.13 15.2124L16.13 10.2124C16.2237 10.1195 16.2981 10.0089 16.3489 9.88702C16.3997 9.76516 16.4258 9.63445 16.4258 9.50244C16.4258 9.37043 16.3997 9.23972 16.3489 9.11786C16.2981 8.99601 16.2237 8.8854 16.13 8.79244C15.9426 8.60619 15.6892 8.50165 15.425 8.50165C15.1608 8.50165 14.9074 8.60619 14.72 8.79244ZM12 2.00244C10.0222 2.00244 8.08879 2.58893 6.4443 3.68775C4.79981 4.78656 3.51809 6.34835 2.76121 8.17561C2.00433 10.0029 1.8063 12.0135 2.19215 13.9533C2.578 15.8932 3.53041 17.675 4.92894 19.0735C6.32746 20.472 8.10929 21.4244 10.0491 21.8103C11.9889 22.1961 13.9996 21.9981 15.8268 21.2412C17.6541 20.4844 19.2159 19.2026 20.3147 17.5581C21.4135 15.9137 22 13.9803 22 12.0024C22 10.6892 21.7413 9.38886 21.2388 8.17561C20.7363 6.96235 19.9997 5.85996 19.0711 4.93137C18.1425 4.00279 17.0401 3.26619 15.8268 2.76365C14.6136 2.2611 13.3132 2.00244 12 2.00244ZM12 20.0024C10.4178 20.0024 8.87104 19.5332 7.55544 18.6542C6.23985 17.7751 5.21447 16.5257 4.60897 15.0639C4.00347 13.6021 3.84504 11.9936 4.15372 10.4417C4.4624 8.88987 5.22433 7.46441 6.34315 6.34559C7.46197 5.22677 8.88743 4.46484 10.4393 4.15616C11.9911 3.84748 13.5997 4.0059 15.0615 4.61141C16.5233 5.21691 17.7727 6.24229 18.6518 7.55788C19.5308 8.87347 20 10.4202 20 12.0024C20 14.1242 19.1572 16.159 17.6569 17.6593C16.1566 19.1596 14.1217 20.0024 12 20.0024Z" fill="#F37502"/>
</svg>
