<svg width="39" height="38" viewBox="0 0 39 38" fill="none" xmlns="http://www.w3.org/2000/svg">
<path d="M16.6502 37.69C16.1369 37.69 15.7169 37.5267 15.3902 37.2C15.0636 36.8733 14.9002 36.4533 14.9002 35.94V23.13H2.44023C1.9269 23.13 1.48357 22.9667 1.11023 22.64C0.783568 22.3133 0.620235 21.8933 0.620235 21.38V16.27C0.620235 15.7567 0.783568 15.3367 1.11023 15.01C1.48357 14.6833 1.9269 14.52 2.44023 14.52H14.9002V2.06C14.9002 1.54666 15.0636 1.12667 15.3902 0.8C15.7169 0.473332 16.1369 0.309998 16.6502 0.309998H22.3902C22.8569 0.309998 23.2536 0.473332 23.5802 0.8C23.9536 1.12667 24.1402 1.54666 24.1402 2.06V14.52H36.5302C37.0436 14.52 37.4636 14.6833 37.7902 15.01C38.1169 15.3367 38.2802 15.7567 38.2802 16.27V21.38C38.2802 21.8933 38.1169 22.3133 37.7902 22.64C37.4636 22.9667 37.0436 23.13 36.5302 23.13H24.1402V35.94C24.1402 36.4533 23.9536 36.8733 23.5802 37.2C23.2536 37.5267 22.8569 37.69 22.3902 37.69H16.6502Z" fill="url(#paint0_linear_562_34787)"/>
<defs>
<linearGradient id="paint0_linear_562_34787" x1="14.018" y1="-79.8091" x2="-27.4622" y2="-71.4733" gradientUnits="userSpaceOnUse">
<stop stop-color="#70E705"/>
<stop offset="1" stop-color="#0E6B12"/>
</linearGradient>
</defs>
</svg>
