<svg width="32" height="28" viewBox="0 0 32 28" fill="none" xmlns="http://www.w3.org/2000/svg">
<path d="M2.19578 9.73C1.72911 9.73 1.30911 9.56666 0.935782 9.24C0.609115 8.86667 0.445782 8.44667 0.445782 7.98V2.52C0.445782 2.05333 0.609115 1.65666 0.935782 1.33C1.30911 0.956665 1.72911 0.769998 2.19578 0.769998H29.7758C30.2424 0.769998 30.6391 0.956665 30.9658 1.33C31.3391 1.65666 31.5258 2.05333 31.5258 2.52V7.98C31.5258 8.44667 31.3391 8.86667 30.9658 9.24C30.6391 9.56666 30.2424 9.73 29.7758 9.73H2.19578ZM2.19578 27.23C1.72911 27.23 1.30911 27.0667 0.935782 26.74C0.609115 26.3667 0.445782 25.9467 0.445782 25.48V20.02C0.445782 19.5533 0.609115 19.1567 0.935782 18.83C1.30911 18.4567 1.72911 18.27 2.19578 18.27H29.7758C30.2424 18.27 30.6391 18.4567 30.9658 18.83C31.3391 19.1567 31.5258 19.5533 31.5258 20.02V25.48C31.5258 25.9467 31.3391 26.3667 30.9658 26.74C30.6391 27.0667 30.2424 27.23 29.7758 27.23H2.19578Z" fill="url(#paint0_linear_562_34765)"/>
<defs>
<linearGradient id="paint0_linear_562_34765" x1="7.22884" y1="-28.3304" x2="-35.3963" y2="5.23" gradientUnits="userSpaceOnUse">
<stop stop-color="#70E705"/>
<stop offset="1" stop-color="#0E6B12"/>
</linearGradient>
</defs>
</svg>
