<svg width="20" height="21" viewBox="0 0 20 21" fill="none" xmlns="http://www.w3.org/2000/svg">
<path d="M17.5001 17.6643H16.6667V5.16434C16.6667 4.94333 16.579 4.73137 16.4227 4.57509C16.2664 4.41881 16.0544 4.33101 15.8334 4.33101C15.6124 4.33101 15.4004 4.41881 15.2442 4.57509C15.0879 4.73137 15.0001 4.94333 15.0001 5.16434V17.6643H13.3334V11.831C13.3334 11.61 13.2456 11.398 13.0893 11.2418C12.9331 11.0855 12.7211 10.9977 12.5001 10.9977C12.2791 10.9977 12.0671 11.0855 11.9108 11.2418C11.7545 11.398 11.6667 11.61 11.6667 11.831V17.6643H10.0001V8.49768C10.0001 8.27666 9.91228 8.0647 9.756 7.90842C9.59972 7.75214 9.38776 7.66434 9.16675 7.66434C8.94573 7.66434 8.73377 7.75214 8.57749 7.90842C8.42121 8.0647 8.33341 8.27666 8.33341 8.49768V17.6643H6.66675V15.1643C6.66675 14.9433 6.57895 14.7314 6.42267 14.5751C6.26639 14.4188 6.05443 14.331 5.83341 14.331C5.6124 14.331 5.40044 14.4188 5.24416 14.5751C5.08788 14.7314 5.00008 14.9433 5.00008 15.1643V17.6643H3.33341V3.49768C3.33341 3.27666 3.24562 3.0647 3.08934 2.90842C2.93306 2.75214 2.7211 2.66434 2.50008 2.66434C2.27907 2.66434 2.06711 2.75214 1.91083 2.90842C1.75455 3.0647 1.66675 3.27666 1.66675 3.49768V18.4977C1.66675 18.7187 1.75455 18.9307 1.91083 19.0869C2.06711 19.2432 2.27907 19.331 2.50008 19.331H17.5001C17.7211 19.331 17.9331 19.2432 18.0893 19.0869C18.2456 18.9307 18.3334 18.7187 18.3334 18.4977C18.3334 18.2767 18.2456 18.0647 18.0893 17.9084C17.9331 17.7521 17.7211 17.6643 17.5001 17.6643Z" fill="white"/>
</svg>
