<svg width="24" height="25" viewBox="0 0 24 25" fill="none" xmlns="http://www.w3.org/2000/svg">
<circle cx="12" cy="12.9977" r="10" fill="white"/>
<path d="M11.29 16.2877C11.247 16.3352 11.2069 16.3853 11.17 16.4377C11.1322 16.4934 11.1019 16.554 11.08 16.6177C11.0512 16.6744 11.031 16.735 11.02 16.7977C11.0151 16.8643 11.0151 16.9311 11.02 16.9977C11.0166 17.1289 11.044 17.259 11.1 17.3777C11.1449 17.5018 11.2166 17.6145 11.3099 17.7078C11.4032 17.8011 11.5159 17.8728 11.64 17.9177C11.7597 17.9706 11.8891 17.9979 12.02 17.9979C12.1509 17.9979 12.2803 17.9706 12.4 17.9177C12.5241 17.8728 12.6368 17.8011 12.7301 17.7078C12.8234 17.6145 12.8951 17.5018 12.94 17.3777C12.9844 17.2561 13.0048 17.127 13 16.9977C13.0008 16.8661 12.9755 16.7356 12.9258 16.6138C12.876 16.4919 12.8027 16.3811 12.71 16.2877C12.617 16.194 12.5064 16.1196 12.3846 16.0688C12.2627 16.018 12.132 15.9919 12 15.9919C11.868 15.9919 11.7373 16.018 11.6154 16.0688C11.4936 16.1196 11.383 16.194 11.29 16.2877ZM12 2.99768C10.0222 2.99768 8.08879 3.58417 6.4443 4.68298C4.79981 5.7818 3.51809 7.34359 2.76121 9.17085C2.00433 10.9981 1.8063 13.0088 2.19215 14.9486C2.578 16.8884 3.53041 18.6702 4.92894 20.0687C6.32746 21.4673 8.10929 22.4197 10.0491 22.8055C11.9889 23.1914 13.9996 22.9934 15.8268 22.2365C17.6541 21.4796 19.2159 20.1979 20.3147 18.5534C21.4135 16.9089 22 14.9755 22 12.9977C22 11.6845 21.7413 10.3841 21.2388 9.17085C20.7363 7.95759 19.9997 6.8552 19.0711 5.92661C18.1425 4.99803 17.0401 4.26143 15.8268 3.75889C14.6136 3.25634 13.3132 2.99768 12 2.99768ZM12 20.9977C10.4178 20.9977 8.87104 20.5285 7.55544 19.6494C6.23985 18.7704 5.21447 17.521 4.60897 16.0591C4.00347 14.5973 3.84504 12.9888 4.15372 11.437C4.4624 9.88511 5.22433 8.45965 6.34315 7.34083C7.46197 6.22201 8.88743 5.46008 10.4393 5.1514C11.9911 4.84272 13.5997 5.00114 15.0615 5.60664C16.5233 6.21215 17.7727 7.23753 18.6518 8.55312C19.5308 9.86871 20 11.4154 20 12.9977C20 15.1194 19.1572 17.1542 17.6569 18.6545C16.1566 20.1548 14.1217 20.9977 12 20.9977ZM12 7.99768C11.4731 7.99734 10.9553 8.1358 10.4989 8.39912C10.0425 8.66245 9.66347 9.04134 9.4 9.49768C9.32765 9.6115 9.27907 9.73878 9.25718 9.87186C9.23529 10.0049 9.24055 10.1411 9.27263 10.2721C9.30472 10.4031 9.36297 10.5262 9.44389 10.6341C9.52481 10.742 9.62671 10.8324 9.74348 10.8999C9.86024 10.9674 9.98945 11.0106 10.1233 11.0269C10.2572 11.0431 10.393 11.0321 10.5225 10.9946C10.6521 10.957 10.7727 10.8936 10.8771 10.8082C10.9814 10.7228 11.0675 10.6172 11.13 10.4977C11.2181 10.3451 11.345 10.2185 11.4978 10.1307C11.6505 10.0429 11.8238 9.99698 12 9.99768C12.2652 9.99768 12.5196 10.103 12.7071 10.2906C12.8946 10.4781 13 10.7325 13 10.9977C13 11.2629 12.8946 11.5173 12.7071 11.7048C12.5196 11.8923 12.2652 11.9977 12 11.9977C11.7348 11.9977 11.4804 12.103 11.2929 12.2906C11.1054 12.4781 11 12.7325 11 12.9977V13.9977C11 14.2629 11.1054 14.5173 11.2929 14.7048C11.4804 14.8923 11.7348 14.9977 12 14.9977C12.2652 14.9977 12.5196 14.8923 12.7071 14.7048C12.8946 14.5173 13 14.2629 13 13.9977V13.8177C13.6614 13.5777 14.2174 13.1129 14.5708 12.5045C14.9242 11.8962 15.0525 11.183 14.9334 10.4896C14.8143 9.79617 14.4552 9.1667 13.919 8.7112C13.3828 8.25569 12.7035 8.00314 12 7.99768Z" fill="#DC635E"/>
</svg>
