<svg width="13" height="27" viewBox="0 0 13 27" fill="none" xmlns="http://www.w3.org/2000/svg">
<path d="M5.7579 0.309353C5.75758 0.309669 5.75722 0.309933 5.7569 0.310303L0.305287 5.82125C-0.103112 6.23411 -0.101593 6.90189 0.308851 7.31284C0.719243 7.72375 1.38303 7.72217 1.79148 7.30931L5.45161 3.60926L5.45161 25.9453C5.45161 26.5278 5.92098 27 6.5 27C7.07902 27 7.54839 26.5278 7.54839 25.9453L7.54839 3.60931L11.2085 7.30926C11.617 7.72212 12.2808 7.7237 12.6911 7.31279C13.1016 6.90183 13.1031 6.234 12.6947 5.8212L7.2431 0.310249C7.24278 0.309933 7.24242 0.309669 7.2421 0.309299C6.83229 -0.103769 6.16635 -0.102449 5.7579 0.309353Z" fill="#F47803"/>
</svg>
