<svg width="13" height="27" viewBox="0 0 13 27" fill="none" xmlns="http://www.w3.org/2000/svg">
<path d="M5.7579 26.6906C5.75758 26.6903 5.75722 26.6901 5.7569 26.6897L0.305287 21.1787C-0.103112 20.7659 -0.101593 20.0981 0.308851 19.6872C0.719243 19.2763 1.38303 19.2778 1.79148 19.6907L5.45161 23.3907L5.45161 1.05469C5.45161 0.472183 5.92098 0 6.5 0C7.07902 0 7.54839 0.472183 7.54839 1.05469L7.54839 23.3907L11.2085 19.6907C11.617 19.2779 12.2808 19.2763 12.6911 19.6872C13.1016 20.0982 13.1031 20.766 12.6947 21.1788L7.2431 26.6898C7.24278 26.6901 7.24242 26.6903 7.2421 26.6907C6.83229 27.1038 6.16635 27.1024 5.7579 26.6906Z" fill="#F47803"/>
</svg>
