<svg width="69" height="69" viewBox="0 0 69 69" fill="none" xmlns="http://www.w3.org/2000/svg">
<g clip-path="url(#clip0_1562_44953)">
<path d="M34.5 69.0005C53.5538 69.0005 69 53.5543 69 34.5005C69 15.4467 53.5538 0.000488281 34.5 0.000488281C15.4462 0.000488281 0 15.4467 0 34.5005C0 53.5543 15.4462 69.0005 34.5 69.0005Z" fill="#F0F0F0"/>
<path d="M7.13177 13.4962C4.42177 17.0221 2.37832 21.0859 1.18848 25.5007H19.1363L7.13177 13.4962Z" fill="#0052B4"/>
<path d="M67.8116 25.5007C66.6217 21.0861 64.5781 17.0222 61.8683 13.4963L49.864 25.5007H67.8116Z" fill="#0052B4"/>
<path d="M1.18848 43.5006C2.37846 47.9153 4.42191 51.9791 7.13177 55.5049L19.1359 43.5006H1.18848Z" fill="#0052B4"/>
<path d="M55.5044 7.1324C51.9785 4.4224 47.9148 2.37895 43.5 1.18896V19.1366L55.5044 7.1324Z" fill="#0052B4"/>
<path d="M13.4956 61.8685C17.0215 64.5785 21.0853 66.6219 25.5 67.8119V49.8644L13.4956 61.8685Z" fill="#0052B4"/>
<path d="M25.4999 1.18896C21.0852 2.37895 17.0213 4.4224 13.4956 7.13226L25.4999 19.1365V1.18896Z" fill="#0052B4"/>
<path d="M43.5 67.8119C47.9147 66.6219 51.9785 64.5785 55.5042 61.8686L43.5 49.8644V67.8119Z" fill="#0052B4"/>
<path d="M49.864 43.5006L61.8683 55.505C64.5781 51.9793 66.6217 47.9153 67.8116 43.5006H49.864Z" fill="#0052B4"/>
<path d="M68.708 30.0005H39.0002H39.0001V0.292525C37.527 0.100754 36.0251 0.000488281 34.5 0.000488281C32.9746 0.000488281 31.473 0.100754 30 0.292525V30.0003V30.0004H0.292037C0.100266 31.4735 0 32.9753 0 34.5005C0 36.0259 0.100266 37.5275 0.292037 39.0004H29.9998H29.9999V68.7085C31.473 68.9002 32.9746 69.0005 34.5 69.0005C36.0251 69.0005 37.527 68.9004 39 68.7085V39.0007V39.0006H68.708C68.8997 37.5275 69 36.0259 69 34.5005C69 32.9753 68.8997 31.4735 68.708 30.0005Z" fill="#D80027"/>
<path d="M43.5 43.5006L58.8951 58.8957C59.6031 58.1879 60.2786 57.4479 60.923 56.6808L47.7427 43.5005H43.5V43.5006Z" fill="#D80027"/>
<path d="M25.5 43.5007H25.4997L10.1047 58.8957C10.8125 59.6037 11.5525 60.2792 12.3196 60.9236L25.5 47.743V43.5007Z" fill="#D80027"/>
<path d="M25.4999 25.5007V25.5004L10.1049 10.1052C9.3968 10.813 8.72135 11.553 8.0769 12.3201L21.2574 25.5006L25.4999 25.5007Z" fill="#D80027"/>
<path d="M43.5 25.5007L58.8952 10.1053C58.1874 9.39727 57.4474 8.72183 56.6803 8.07751L43.5 21.258V25.5007Z" fill="#D80027"/>
</g>
<defs>
<clipPath id="clip0_1562_44953">
<rect width="69" height="69" fill="white" transform="translate(0 0.000488281)"/>
</clipPath>
</defs>
</svg>
